<svg width="43" height="35" viewBox="0 0 43 35" fill="none" xmlns="http://www.w3.org/2000/svg">
<path d="M40.625 8.75H27.875C26.6797 8.75 25.75 9.74609 25.75 10.875V32.125C25.75 33.3203 26.6797 34.25 27.875 34.25H40.625C41.7539 34.25 42.75 33.3203 42.75 32.125V10.875C42.75 9.74609 41.7539 8.75 40.625 8.75ZM40.625 32.125H27.875V10.875H40.625V32.125ZM6.625 2.375H32.125V6.625H34.25V2.375C34.25 1.24609 33.2539 0.25 32.125 0.25H6.625C5.42969 0.25 4.5 1.24609 4.5 2.375V19.375H1.3125C0.714844 19.375 0.25 19.9062 0.25 20.4375V21.5C0.25 23.8906 2.10938 25.75 4.43359 25.75H23.625V23.625H4.43359C3.30469 23.625 2.375 22.6953 2.375 21.5H23.625V19.375H6.625V2.375Z" fill="black" fill-opacity="0.6"/>
</svg>
